<svg width="315" height="46" viewBox="0 0 315 46" fill="none" xmlns="http://www.w3.org/2000/svg">
<g clip-path="url(#clip0_190_2654)">
<path fill-rule="evenodd" clip-rule="evenodd" d="M5.12311 21.1398C-0.454849 18.2534 -0.34943 12.7299 5.32035 10.8054L26.0228 3.77286C28.568 2.90824 31.5093 2.58491 34.5018 2.84081C37.4943 3.09671 40.4137 3.92123 42.9176 5.21762L63.2879 15.7625C68.8659 18.6489 68.7605 24.1724 63.0907 26.0968L42.3882 33.1294C39.8431 33.9941 36.9017 34.3174 33.9092 34.0615C30.9168 33.8056 27.9973 32.9811 25.4934 31.6847L5.12311 21.1398Z" fill="white"/>
<path fill-rule="evenodd" clip-rule="evenodd" d="M59.2986 27.5432L42.5122 18.853C40.0087 17.5571 37.0899 16.7329 34.0981 16.477C31.1063 16.2212 28.1655 16.5443 25.6208 17.4085L8.55794 23.2041L27.9887 33.2649C29.7018 34.1518 31.6992 34.7159 33.7466 34.891C35.794 35.0661 37.8064 34.8449 39.5478 34.2534L59.2986 27.5432ZM63.7718 29.9089C63.4885 30.0394 63.1876 30.1587 62.8693 30.2668L42.1602 37.2988C39.6154 38.163 36.6747 38.4861 33.6829 38.2303C30.6911 37.9744 27.7722 37.1502 25.2687 35.8543L4.89841 25.3094C4.59114 25.1494 4.29537 24.9789 4.01244 24.7986C-0.749917 26.9792 -0.548113 32.0493 4.71775 34.7751L25.0848 45.3197C27.5886 46.6161 30.5081 47.4406 33.5006 47.6965C36.493 47.9524 39.4344 47.6291 41.9795 46.7645L62.6853 39.7322C68.0379 37.9144 68.4356 32.8956 63.7718 29.9089Z" fill="#FCFCFF"/>
</g>
<defs>
<clipPath id="clip0_190_2654">
<rect width="315" height="45.4186" fill="white"/>
</clipPath>
</defs>
</svg>
