<svg width="41" height="40" viewBox="0 0 41 40" fill="none" xmlns="http://www.w3.org/2000/svg">
<path d="M13.5002 3.33331H27.5002C32.8335 3.33331 37.1668 7.66665 37.1668 13V27C37.1668 29.5637 36.1484 32.0225 34.3355 33.8353C32.5227 35.6482 30.0639 36.6666 27.5002 36.6666H13.5002C8.16683 36.6666 3.8335 32.3333 3.8335 27V13C3.8335 10.4362 4.85195 7.97747 6.6648 6.16461C8.47765 4.35176 10.9364 3.33331 13.5002 3.33331ZM13.1668 6.66665C11.5755 6.66665 10.0494 7.29879 8.92419 8.42401C7.79897 9.54922 7.16683 11.0753 7.16683 12.6666V27.3333C7.16683 30.65 9.85016 33.3333 13.1668 33.3333H27.8335C29.4248 33.3333 30.9509 32.7012 32.0761 31.576C33.2014 30.4507 33.8335 28.9246 33.8335 27.3333V12.6666C33.8335 9.34998 31.1502 6.66665 27.8335 6.66665H13.1668ZM29.2502 9.16665C29.8027 9.16665 30.3326 9.38614 30.7233 9.77684C31.114 10.1675 31.3335 10.6974 31.3335 11.25C31.3335 11.8025 31.114 12.3324 30.7233 12.7231C30.3326 13.1138 29.8027 13.3333 29.2502 13.3333C28.6976 13.3333 28.1677 13.1138 27.777 12.7231C27.3863 12.3324 27.1668 11.8025 27.1668 11.25C27.1668 10.6974 27.3863 10.1675 27.777 9.77684C28.1677 9.38614 28.6976 9.16665 29.2502 9.16665ZM20.5002 11.6666C22.7103 11.6666 24.8299 12.5446 26.3927 14.1074C27.9555 15.6702 28.8335 17.7898 28.8335 20C28.8335 22.2101 27.9555 24.3297 26.3927 25.8925C24.8299 27.4553 22.7103 28.3333 20.5002 28.3333C18.29 28.3333 16.1704 27.4553 14.6076 25.8925C13.0448 24.3297 12.1668 22.2101 12.1668 20C12.1668 17.7898 13.0448 15.6702 14.6076 14.1074C16.1704 12.5446 18.29 11.6666 20.5002 11.6666ZM20.5002 15C19.1741 15 17.9023 15.5268 16.9646 16.4644C16.0269 17.4021 15.5002 18.6739 15.5002 20C15.5002 21.3261 16.0269 22.5978 16.9646 23.5355C17.9023 24.4732 19.1741 25 20.5002 25C21.8262 25 23.098 24.4732 24.0357 23.5355C24.9734 22.5978 25.5002 21.3261 25.5002 20C25.5002 18.6739 24.9734 17.4021 24.0357 16.4644C23.098 15.5268 21.8262 15 20.5002 15Z" fill="#003A5D"/>
</svg>
