<svg width="33" height="39" viewBox="0 0 33 39" fill="none" xmlns="http://www.w3.org/2000/svg">
<path d="M30.2746 38.9655C26.615 38.9655 22.9993 37.9914 19.4275 36.0432C15.8557 34.095 12.606 31.3322 9.67831 27.7548C6.75062 24.1774 4.48927 20.208 2.89426 15.8468C1.29926 11.4855 0.501171 7.06914 0.5 2.59772C0.5 1.95404 0.675661 1.41765 1.02698 0.988527C1.37831 0.559408 1.81746 0.344849 2.34444 0.344849H9.45873C9.86861 0.344849 10.2346 0.515066 10.5566 0.8555C10.8787 1.19593 11.069 1.59788 11.1275 2.06132L12.2693 9.5709C12.3279 10.1431 12.3132 10.6258 12.2254 11.0192C12.1376 11.4125 11.9765 11.7523 11.7423 12.0383L7.48254 17.295C8.06808 18.6182 8.76311 19.8962 9.56764 21.1292C10.3722 22.3622 11.2581 23.5516 12.2254 24.6973C13.133 25.8059 14.0845 26.8344 15.0799 27.7827C16.0753 28.7311 17.1293 29.5979 18.2418 30.3832L22.3698 25.341C22.6333 25.0192 22.9776 24.7782 23.4027 24.618C23.8278 24.4577 24.2447 24.4127 24.6534 24.4828L30.7138 25.9847C31.1236 26.1277 31.4603 26.3874 31.7238 26.7635C31.9873 27.1397 32.119 27.5596 32.119 28.023V36.7127C32.119 37.3563 31.9434 37.8927 31.5921 38.3219C31.2407 38.751 30.8016 38.9655 30.2746 38.9655Z" fill="#003A5D"/>
</svg>
