<svg width="34" height="39" viewBox="0 0 34 39" fill="none" xmlns="http://www.w3.org/2000/svg">
<path d="M17.6472 30.5402C17.6472 23.801 21.8405 18.3241 27.0003 18.3241C28.715 18.3241 30.305 18.9349 31.6768 19.9733V4.07202C31.6768 2.99205 31.3483 1.95632 30.7636 1.19267C30.179 0.429015 29.386 0 28.5591 0H3.61768C1.88737 0 0.5 1.81205 0.5 4.07202V28.5042C0.5 29.5841 0.828469 30.6199 1.41315 31.3835C1.99783 32.1472 2.79082 32.5762 3.61768 32.5762H17.7875C17.7096 31.9043 17.6472 31.2324 17.6472 30.5402ZM3.61768 8.14404V4.07202L16.0884 14.2521L28.5591 4.07202V8.14404L16.0884 18.3241L3.61768 8.14404ZM28.5591 22.3961V28.5042H33.2356V32.5762H28.5591V38.6842H25.4414V32.5762H20.7649V28.5042H25.4414V22.3961H28.5591Z" fill="#003A5D"/>
</svg>
