<svg width="32" height="40" viewBox="0 0 32 40" fill="none" xmlns="http://www.w3.org/2000/svg">
<path d="M16.125 18.8302C14.645 18.8302 13.2256 18.3233 12.1791 17.421C11.1326 16.5187 10.5446 15.2949 10.5446 14.0189C10.5446 12.7428 11.1326 11.5191 12.1791 10.6168C13.2256 9.71446 14.645 9.20756 16.125 9.20756C17.605 9.20756 19.0244 9.71446 20.0709 10.6168C21.1174 11.5191 21.7054 12.7428 21.7054 14.0189C21.7054 14.6507 21.561 15.2764 21.2806 15.8601C21.0001 16.4438 20.5891 16.9742 20.0709 17.421C19.5527 17.8678 18.9376 18.2222 18.2605 18.464C17.5835 18.7058 16.8578 18.8302 16.125 18.8302ZM16.125 0.54718C11.981 0.54718 8.00671 1.96652 5.07646 4.49295C2.1462 7.01938 0.5 10.446 0.5 14.0189C0.5 24.1227 16.125 39.0377 16.125 39.0377C16.125 39.0377 31.75 24.1227 31.75 14.0189C31.75 10.446 30.1038 7.01938 27.1735 4.49295C24.2433 1.96652 20.269 0.54718 16.125 0.54718Z" fill="#003A5D"/>
</svg>
